<svg aria-hidden="true" style="position: absolute; width: 0; height: 0; overflow: hidden;" version="1.1"
    xmlns="http://www.w3.org/2000/svg"
    xmlns:xlink="http://www.w3.org/1999/xlink">
    <defs>
        <symbol id="arrow-up" viewBox="0 0 28 32">
            <path fill="#fbfbfb" style="fill: var(--color1, #fbfbfb)" d="M24.137 3.149c-0.145-1.029-1.096-1.747-2.126-1.602l-16.776 2.358c-1.029 0.145-1.747 1.097-1.602 2.126s1.097 1.747 2.126 1.602l14.912-2.096 2.096 14.912c0.145 1.029 1.096 1.747 2.126 1.602s1.747-1.096 1.602-2.126l-2.358-16.776zM3.386 31.604l20.391-27.060-3.007-2.266-20.391 27.060 3.007 2.266z"></path>
        </symbol>
        <symbol id="arrow-right" viewBox="0 0 40 32">
            <path fill="#fbfbfb" style="fill: var(--color2, #fbfbfb)" d="M39.436 17.075c0.767-0.795 0.745-2.061-0.049-2.828l-12.948-12.504c-0.794-0.767-2.061-0.745-2.828 0.049s-0.745 2.061 0.049 2.828l11.509 11.115-11.114 11.509c-0.767 0.795-0.745 2.061 0.049 2.828s2.061 0.745 2.828-0.049l12.504-12.948zM2.037 18.314l35.995-0.628-0.070-3.999-35.995 0.628 0.070 3.999z"></path>
        </symbol>
        <symbol id="check" viewBox="0 0 40 32">
            <path fill="#fbfbfb" style="fill: var(--color1, #fbfbfb)" d="M5 11l-5 5 15 15 25-25-5-5-20 20-10-10z"></path>
        </symbol>
        <symbol id="close" viewBox="0 0 32 32">
            <path d="M32 3.224l-3.224-3.224-12.776 12.776-12.776-12.776-3.224 3.224 12.776 12.776-12.776 12.776 3.224 3.224 12.776-12.776 12.776 12.776 3.224-3.224-12.776-12.776 12.776-12.776z"></path>
        </symbol>
        <symbol id="eye" viewBox="0 0 32 32">
            <path d="M16.122 3.612c-10.552 0-16.097 11.55-16.097 11.55-0.107 0.209-0.169 0.455-0.169 0.716s0.062 0.507 0.173 0.725l-0.004-0.009c0 0 5.545 11.55 16.097 11.55s16.097-11.55 16.097-11.55c0.107-0.209 0.169-0.455 0.169-0.716s-0.062-0.507-0.173-0.725l0.004 0.009c0 0-5.545-11.55-16.097-11.55zM16.122 6.812c7.521 0 12.029 7.837 12.712 9.066-0.683 1.229-5.191 9.066-12.712 9.066s-12.029-7.837-12.713-9.066c0.683-1.229 5.191-9.066 12.713-9.066z"></path>
            <path d="M16 10.4c-3.074 0-5.6 2.526-5.6 5.6s2.526 5.6 5.6 5.6c3.074 0 5.6-2.526 5.6-5.6s-2.526-5.6-5.6-5.6zM16 13.6c1.344 0 2.4 1.056 2.4 2.4s-1.056 2.4-2.4 2.4c-1.344 0-2.4-1.056-2.4-2.4s1.056-2.4 2.4-2.4z"></path>
        </symbol>
        <symbol id="eye-off" viewBox="0 0 32 32">
            <path d="M16.118 3.459c-1.066-0.002-2.128 0.12-3.166 0.362-0.714 0.171-1.236 0.804-1.236 1.558 0 0.129 0.015 0.255 0.044 0.375l-0.002-0.011c0.171 0.714 0.803 1.236 1.558 1.236 0.13 0 0.257-0.016 0.378-0.045l-0.011 0.002c0.797-0.187 1.613-0.28 2.431-0.278 0 0 0.001 0 0.002 0s0.001 0 0.002 0h-0c7.541 0 12.065 7.896 12.728 9.091-0.654 1.112-1.334 2.209-2.166 3.197-0.234 0.276-0.377 0.637-0.377 1.031 0 0.49 0.221 0.929 0.568 1.223l0.002 0.002c0.276 0.233 0.636 0.375 1.030 0.375 0.49 0 0.928-0.22 1.222-0.567l0.002-0.002c1.177-1.399 2.207-2.919 3.069-4.531 0.118-0.218 0.188-0.477 0.188-0.753 0-0.261-0.063-0.508-0.173-0.725l0.004 0.009c0 0-5.544-11.548-16.094-11.55zM8.412 6.219c-0.064-0.009-0.137-0.014-0.212-0.014-0.368 0-0.706 0.124-0.976 0.332l0.004-0.003c-2.969 2.267-5.418 5.143-7.184 8.434-0.12 0.219-0.19 0.48-0.19 0.757 0 0.261 0.062 0.507 0.173 0.724l-0.004-0.009c0 0 5.545 11.55 16.097 11.55 0.004 0 0.008 0 0.012 0s0.009-0 0.013-0h-0.001c3.207-0.052 6.315-1.128 8.866-3.072 0.385-0.295 0.631-0.756 0.631-1.273 0-0.367-0.123-0.704-0.331-0.974l0.003 0.004c-0.295-0.385-0.756-0.631-1.273-0.631-0.367 0-0.704 0.123-0.974 0.331l0.004-0.003c-2.004 1.528-4.443 2.372-6.963 2.416-7.53-0.010-12.047-7.886-12.713-9.084 1.505-2.546 3.42-4.829 5.775-6.628 0.384-0.295 0.63-0.755 0.63-1.272 0-0.366-0.123-0.703-0.329-0.972l0.003 0.004c-0.253-0.329-0.625-0.556-1.051-0.615l-0.008-0.001zM13.349 11.3c-0.018-0.001-0.039-0.001-0.059-0.001-0.422 0-0.806 0.163-1.091 0.43l0.001-0.001c-0.55 0.513-0.991 1.132-1.297 1.819s-0.471 1.426-0.484 2.178c-0.013 0.752 0.125 1.5 0.406 2.197s0.703 1.331 1.234 1.863c0.532 0.532 1.165 0.95 1.863 1.231s1.445 0.423 2.197 0.409c0.752-0.013 1.491-0.179 2.178-0.484s1.306-0.75 1.819-1.3c0.265-0.285 0.428-0.668 0.428-1.089 0-0.462-0.195-0.878-0.508-1.17l-0.001-0.001c-0.285-0.265-0.668-0.428-1.089-0.428-0.462 0-0.878 0.195-1.17 0.508l-0.001 0.001c-0.22 0.236-0.483 0.422-0.778 0.553s-0.612 0.204-0.934 0.209c-0.322 0.006-0.642-0.054-0.941-0.175-0 0-0.001 0-0.002 0s-0.001 0-0.002 0h0c-0.299-0.121-0.569-0.3-0.797-0.528s-0.407-0.498-0.528-0.797-0.181-0.621-0.175-0.944c0.006-0.322 0.078-0.64 0.209-0.934s0.32-0.558 0.556-0.778c0.313-0.293 0.509-0.709 0.509-1.17 0-0.423-0.164-0.807-0.432-1.093l0.001 0.001c-0.28-0.299-0.673-0.49-1.11-0.506l-0.003-0z"></path>
            <path d="M0.321-0.072c-0.289 0.29-0.469 0.689-0.469 1.131s0.179 0.842 0.469 1.131l29.331 29.331c0.29 0.289 0.689 0.468 1.131 0.468s0.842-0.179 1.131-0.468v0c0.289-0.29 0.468-0.689 0.468-1.131s-0.179-0.842-0.468-1.131l-29.331-29.331c-0.29-0.289-0.689-0.469-1.131-0.469s-0.842 0.179-1.131 0.469v0z"></path>
        </symbol>
        <symbol id="user" viewBox="0 0 32 32">
            <path d="M16 0c2.122 0 4.157 0.843 5.657 2.343s2.343 3.535 2.343 5.657-0.843 4.157-2.343 5.657c-1.5 1.5-3.535 2.343-5.657 2.343s-4.157-0.843-5.657-2.343c-1.5-1.5-2.343-3.535-2.343-5.657s0.843-4.157 2.343-5.657c1.5-1.5 3.535-2.343 5.657-2.343zM16 20c8.84 0 16 3.58 16 8v4h-32v-4c0-4.42 7.16-8 16-8z"></path>
        </symbol>
        <symbol id="map-pin" viewBox="0 0 32 32">
            <path d="M16-0.168c-3.58 0-7.016 1.426-9.547 3.957s-3.953 5.963-3.953 9.543c0 5.31 3.284 9.899 6.41 13.199s6.258 5.383 6.258 5.383c0.234 0.158 0.522 0.252 0.832 0.252s0.598-0.094 0.837-0.255l-0.005 0.003c0 0 3.131-2.083 6.258-5.383s6.41-7.89 6.41-13.199c0-3.58-1.422-7.012-3.953-9.543s-5.967-3.957-9.547-3.957zM16 2.832c2.785 0 5.456 1.109 7.426 3.078s3.074 4.636 3.074 7.422c0 4.024-2.716 8.104-5.59 11.137-2.457 2.593-4.25 3.769-4.91 4.23-0.66-0.461-2.453-1.637-4.91-4.23-2.873-3.033-5.59-7.113-5.59-11.137 0-2.785 1.105-5.452 3.074-7.422s4.64-3.078 7.426-3.078z"></path>
            <path d="M16 7.832c-3.020 0-5.5 2.48-5.5 5.5s2.48 5.5 5.5 5.5c3.020 0 5.5-2.48 5.5-5.5s-2.48-5.5-5.5-5.5zM16 10.832c1.398 0 2.5 1.102 2.5 2.5s-1.102 2.5-2.5 2.5c-1.398 0-2.5-1.102-2.5-2.5s1.102-2.5 2.5-2.5z"></path>
        </symbol>
        <symbol id="star" viewBox="0 0 34 32">
            <path fill="#ffc531" style="fill: var(--color1, #ffc531)" d="M13.227 10.020l3.84-7.277 3.84 7.277c0.34 0.644 0.959 1.093 1.675 1.217l8.108 1.403-5.735 5.9c-0.507 0.522-0.744 1.249-0.64 1.97l1.171 8.144-7.384-3.631c-0.653-0.321-1.418-0.321-2.071 0l-7.384 3.631 1.171-8.144c0.104-0.72-0.133-1.448-0.64-1.97l-5.735-5.9 8.108-1.403c0.717-0.124 1.336-0.574 1.675-1.217z"></path>
            <path fill="#ffc531" style="fill: var(--color1, #ffc531)" d="M17.067 0l-4.971 9.425c-0.155 0.293-0.436 0.493-0.762 0.55l-10.5 1.817 7.429 7.642c0.231 0.238 0.335 0.567 0.287 0.896l-1.517 10.546 9.563-4.704c0.298-0.146 0.644-0.146 0.942 0l9.563 4.704-1.517-10.546c-0.047-0.328 0.056-0.658 0.288-0.896l7.429-7.642-10.5-1.817c-0.327-0.057-0.608-0.257-0.762-0.55zM17.067 5.487l2.708 5.129c0.524 0.994 1.481 1.692 2.587 1.883l5.721 0.988-4.046 4.162c-0.783 0.806-1.152 1.929-0.992 3.042l0.829 5.742-5.208-2.558c-1.008-0.496-2.192-0.496-3.2 0l-5.208 2.558 0.829-5.742c0.16-1.112-0.209-2.236-0.992-3.042l-4.046-4.162 5.721-0.988c1.107-0.192 2.063-0.89 2.588-1.883z"></path>
        </symbol>
        <symbol id="heart" viewBox="0 0 38 32">
            <path d="M11.108 0.361c-2.684 0-5.258 1.068-7.156 2.966s-2.966 4.475-2.966 7.159c0 2.684 1.068 5.258 2.966 7.156l13.929 13.932c0.263 0.263 0.627 0.426 1.028 0.426s0.765-0.163 1.028-0.426l13.929-13.932c0.94-0.94 1.687-2.056 2.196-3.284s0.77-2.543 0.77-3.872-0.261-2.647-0.77-3.875c-0.509-1.228-1.256-2.344-2.196-3.284s-2.056-1.687-3.284-2.196c-1.228-0.509-2.543-0.77-3.872-0.77s-2.647 0.261-3.875 0.77c-1.228 0.509-2.344 1.256-3.284 2.196l-0.642 0.642-0.642-0.642c-1.898-1.898-4.475-2.966-7.159-2.966zM11.108 3.27c1.914 0 3.749 0.76 5.102 2.114l1.67 1.67c0.263 0.263 0.627 0.426 1.028 0.426s0.765-0.163 1.028-0.426l1.67-1.67c0.67-0.67 1.466-1.203 2.341-1.565s1.814-0.548 2.761-0.548 1.883 0.186 2.759 0.548c0.875 0.363 1.671 0.895 2.341 1.565s1.202 1.466 1.565 2.341c0.363 0.875 0.548 1.814 0.548 2.761s-0.186 1.883-0.548 2.759c-0.363 0.875-0.895 1.671-1.565 2.341l-12.901 12.903-12.901-12.903c-1.353-1.353-2.114-3.186-2.114-5.099s0.76-3.749 2.114-5.102c1.353-1.353 3.186-2.114 5.099-2.114z"></path>
        </symbol>
        <symbol id="full-heart" viewBox="0 0 38 32">
            <path d="M32.839 4.355c-0.805-0.805-1.76-1.444-2.812-1.88s-2.179-0.66-3.318-0.66-2.266 0.224-3.318 0.66c-1.052 0.436-2.007 1.075-2.812 1.88l-1.67 1.67-1.67-1.67c-1.626-1.626-3.831-2.539-6.13-2.539s-4.504 0.913-6.13 2.539c-1.626 1.626-2.539 3.831-2.539 6.13s0.913 4.504 2.539 6.13l13.93 13.93 13.93-13.93c0.805-0.805 1.444-1.76 1.88-2.812s0.66-2.179 0.66-3.318-0.224-2.266-0.66-3.318c-0.436-1.052-1.075-2.007-1.88-2.812z"></path>
            <path d="M11.108 0.361c-2.684 0-5.258 1.068-7.156 2.966s-2.966 4.475-2.966 7.159c0 2.684 1.068 5.258 2.966 7.156l13.929 13.932c0.263 0.263 0.627 0.426 1.028 0.426s0.765-0.163 1.028-0.426l13.929-13.932c0.94-0.94 1.687-2.056 2.196-3.284s0.77-2.543 0.77-3.872-0.261-2.647-0.77-3.875c-0.509-1.228-1.256-2.344-2.196-3.284s-2.056-1.687-3.284-2.196c-1.228-0.509-2.543-0.77-3.872-0.77s-2.647 0.261-3.875 0.77c-1.228 0.509-2.344 1.256-3.284 2.196l-0.642 0.642-0.642-0.642c-1.898-1.898-4.475-2.966-7.159-2.966zM11.108 3.27c1.914 0 3.749 0.76 5.102 2.114l1.67 1.67c0.263 0.263 0.627 0.426 1.028 0.426s0.765-0.163 1.028-0.426l1.67-1.67c0.67-0.67 1.466-1.203 2.341-1.565s1.814-0.548 2.761-0.548 1.883 0.186 2.759 0.548c0.875 0.363 1.671 0.895 2.341 1.565s1.202 1.466 1.565 2.341c0.363 0.875 0.548 1.814 0.548 2.761s-0.186 1.883-0.548 2.759c-0.363 0.875-0.895 1.671-1.565 2.341l-12.901 12.903-12.901-12.903c-1.353-1.353-2.114-3.186-2.114-5.099s0.76-3.749 2.114-5.102c1.353-1.353 3.186-2.114 5.099-2.114z"></path>
        </symbol>
        <symbol id="clock" viewBox="0 0 32 32">
            <path d="M16 1.466c-8.012 0-14.534 6.522-14.534 14.534s6.522 14.534 14.534 14.534 14.531-6.522 14.531-14.534c0-8.012-6.519-14.534-14.531-14.534zM16 3.866c6.715 0 12.131 5.419 12.131 12.134s-5.416 12.134-12.131 12.134c-6.715 0-12.134-5.419-12.134-12.134s5.419-12.134 12.134-12.134z"></path>
            <path d="M16 6.8c-0.663 0-1.2 0.537-1.2 1.2v0 8c0 0.466 0.267 0.87 0.656 1.069l0.007 0.003 5.334 2.669c0.156 0.080 0.341 0.126 0.536 0.126 0.467 0 0.872-0.267 1.070-0.657l0.003-0.007c0.080-0.156 0.126-0.341 0.126-0.536 0-0.467-0.267-0.872-0.657-1.070l-0.007-0.003-4.669-2.334v-7.259c0-0.663-0.537-1.2-1.2-1.2v0z"></path>
        </symbol>
        <symbol id="burger-menu" viewBox="0 0 46 32">
            <path d="M1.778 0c-0.982 0-1.778 0.796-1.778 1.778v0c0 0.982 0.796 1.778 1.778 1.778v0h42.667c0.982 0 1.778-0.796 1.778-1.778v0c0-0.982-0.796-1.778-1.778-1.778v0zM1.778 14.222c-0.982 0-1.778 0.796-1.778 1.778v0c0 0.982 0.796 1.778 1.778 1.778v0h28.444c0.982 0 1.778-0.796 1.778-1.778v0c0-0.982-0.796-1.778-1.778-1.778v0zM1.778 28.444c-0.982 0-1.778 0.796-1.778 1.778v0c0 0.982 0.796 1.778 1.778 1.778v0h42.667c0.982 0 1.778-0.796 1.778-1.778v0c0-0.982-0.796-1.778-1.778-1.778v0z"></path>
        </symbol>
    </defs>
</svg>
